PathFileType	4	(X/Y/Z)	/Users/visionmauri/Downloads/Videos/OAW06-top_Sports2D/OAW06-top_Sports2D_px_person00.trc
DataRate	CameraRate	NumFrames	NumMarkers	Units	OrigDataRate	OrigDataStartFrame	OrigNumFrames
30.0	30.0	11	22	m	30.0	1063	2127
Frame#	Time	Hip			RHip			RKnee			RAnkle			RBigToe			RSmallToe			RHeel			LHip			LKnee			LAnkle			LBigToe			LSmallToe			LHeel			Neck			Head			Nose			RShoulder			RElbow			RWrist			LShoulder			LElbow			LWrist			
		X1	Y1	Z1	X2	Y2	Z2	X3	Y3	Z3	X4	Y4	Z4	X5	Y5	Z5	X6	Y6	Z6	X7	Y7	Z7	X8	Y8	Z8	X9	Y9	Z9	X10	Y10	Z10	X11	Y11	Z11	X12	Y12	Z12	X13	Y13	Z13	X14	Y14	Z14	X15	Y15	Z15	X16	Y16	Z16	X17	Y17	Z17	X18	Y18	Z18	X19	Y19	Z19	X20	Y20	Z20	X21	Y21	Z21	X22	Y22	Z22
1063	35.45	634.8505950043982	823.1386093113298	0.0	619.7885057335595	825.7276441556401	0.0	621.834649490931	887.867266653517	0.0	620.9829643159798	951.6017604952077	0.0	623.5143993650955	971.0941533330127	0.0	616.7736932672211	969.387044778877	0.0	620.5419822531402	960.7682118267924	0.0	650.3306608629455	825.7025347238505	0.0	648.1358782931283	885.490941202592	0.0	640.6828274938207	931.5293381209954	0.0	636.9965362249328	952.7142913033161	0.0	643.9212715896524	950.1940794614137	0.0	639.1905784238833	938.4673524945498	0.0	634.4040547810026	732.9918638795649	0.0	634.2228337918177	686.0728079803848	0.0	632.2091474693913	715.54704566972	0.0	605.0503961976287	742.5647897717901	0.0	599.7926318868547	788.1793505866714	0.0	594.5700153081184	828.2817032484644	0.0	663.4938906401678	742.9946256501811	0.0	671.543232157156	790.7513084473986	0.0	675.392012706912	832.2926182499444	0.0
1064	35.483349012229546	634.3427354750805	823.0637233367956	0.0	619.0996247287719	825.6957581654674	0.0	621.3527934588935	888.1391358984149	0.0	621.09092872452	951.9116320697105	0.0	623.7869759442262	971.3000580549137	0.0	616.630494317346	969.5696058257998	0.0	620.8022163725922	960.8344103071622	0.0	650.2846796558171	825.656578104637	0.0	648.7660812558047	885.0164415813858	0.0	641.3126524668104	930.2797567133465	0.0	637.783689900845	952.8991188318037	0.0	644.9245594647368	950.0679767991484	0.0	640.2039622805048	935.9356412180433	0.0	634.003727517232	732.5787324648196	0.0	633.8909195023548	685.5187721001995	0.0	632.100381150497	714.8804259755353	0.0	604.7556880331506	741.8827543603097	0.0	599.3014290038618	788.207529125775	0.0	593.4651003316383	828.7149395571171	0.0	663.4995994405109	742.3072593278551	0.0	671.0154082878772	790.7480500308811	0.0	675.1830370325005	832.6846549506472	0.0
1065	35.51669802445908	634.1881221176146	823.3751706626068	0.0	618.85188657677	825.7057911278519	0.0	621.1887503132809	888.9600036854781	0.0	621.1993117748865	952.2497550381635	0.0	623.9842618308135	971.4823545531725	0.0	616.8937948103014	969.7498713226297	0.0	620.7961782756195	961.0599411274636	0.0	650.3056068300085	825.6239459426657	0.0	648.8571663568042	885.2839517873629	0.0	641.8859761908104	929.832097725523	0.0	638.5375988669138	953.2396755309906	0.0	646.0271063203272	950.3685031244615	0.0	641.0100308221362	934.3901980707524	0.0	633.7577179286078	732.0646139652002	0.0	633.354562262071	684.1292596098576	0.0	631.9565885351886	713.6066354880644	0.0	604.6054105904805	741.4633765979659	0.0	598.7338644336569	788.1765043899983	0.0	592.6222605162653	829.0421333206308	0.0	663.5303384264972	741.875607825743	0.0	670.6871072378851	790.8463786863704	0.0	675.0040024740838	832.63073981565	0.0
1066	35.550047036688625	634.3316938319264	823.6802454509311	0.0	618.935528209776	825.6894419223281	0.0	621.2417806756484	889.7401086449395	0.0	621.2878309706919	952.3271244834357	0.0	624.1621224121393	971.5431509150541	0.0	617.4321307503009	969.8392167914385	0.0	620.5830526738437	961.3526374374693	0.0	650.3945650055966	825.3991615392059	0.0	648.7384945139264	885.9536722407225	0.0	642.2562169854822	931.5340865144452	0.0	638.8657357612675	954.8590776024345	0.0	646.7075703930926	952.2258305236227	0.0	641.4144723523016	936.1815354332131	0.0	633.6701772625154	731.6022543178526	0.0	633.0164126678571	682.67912208423	0.0	631.8583330045939	712.2733963481313	0.0	604.5196600421145	741.4615166177682	0.0	598.2108617439089	788.2440370676474	0.0	592.2615213360971	829.1379234092963	0.0	663.5653657425933	741.9360907560558	0.0	670.642667878939	790.8935912554002	0.0	674.9525999375577	832.4421091016087	0.0
1067	35.58339604891816	634.5814573731118	823.9922018295867	0.0	619.0650526017919	825.7536743757237	0.0	621.2643281990509	890.3882431094416	0.0	621.376821085971	952.2544234253802	0.0	624.3909203043298	971.4630873578932	0.0	617.7577322239847	969.8988079285269	0.0	620.3740302191432	961.5812221908725	0.0	650.4783485295721	825.1371436278956	0.0	648.6081970433036	887.3520719914966	0.0	642.2868965403377	936.441017237209	0.0	638.4861628079927	958.7203388659876	0.0	646.7371663276397	956.643706419183	0.0	641.5011334251571	942.3948060910323	0.0	633.7319758351485	731.4768928584897	0.0	632.9866320096852	682.0434641316147	0.0	631.8005392767383	711.7837060024231	0.0	604.4464933487084	741.9169954785489	0.0	597.7809625210496	788.6036972816626	0.0	592.191757597832	829.2070412872288	0.0	663.639179479262	742.5577602319878	0.0	670.8959039484787	791.0940263683469	0.0	674.9937894402303	832.9244438255549	0.0
1068	35.6167450611477	634.8984117660784	824.7148067893893	0.0	619.2986412057671	826.2840496752559	0.0	621.1758320195694	891.6640567555827	0.0	621.4719905357309	952.3931895617649	0.0	624.6942047787346	971.4757328663871	0.0	617.7728748523631	970.0184618279428	0.0	620.4793058830295	961.7772492658784	0.0	650.5387010734682	825.4950515283291	0.0	648.538075357326	889.8408126107446	0.0	642.277903674315	943.4778211293484	0.0	637.7803854489654	964.2041422345987	0.0	646.5971763096422	962.8092786798967	0.0	641.6719774149343	950.8885050802519	0.0	634.0590821981169	731.6775701483227	0.0	633.3177030626773	682.0121825491676	0.0	632.0388574491967	712.2584053429318	0.0	604.5490808597484	742.5160124445832	0.0	597.5133794556529	789.0391491435648	0.0	592.1802928157533	829.4739893792747	0.0	663.8102981026141	743.320940945306	0.0	671.255696894376	791.6628843816591	0.0	675.1180694616302	834.1381330511714	0.0
1069	35.65009407337724	635.292560831178	825.8318334967623	0.0	619.7186956491284	827.458929081802	0.0	621.0870140049091	893.8499806979559	0.0	621.4944973629932	953.1354361316854	0.0	625.1147440358674	971.7790914295723	0.0	617.6993491475945	970.2905234803958	0.0	620.9600001003763	962.4663340405313	0.0	650.6998934855541	826.7594027537434	0.0	648.5066298713222	892.9923298312392	0.0	642.7085350310987	950.5225783023114	0.0	637.7912699198639	970.1540215289319	0.0	647.17104659255	969.1778469692204	0.0	642.2213304644906	958.5764103253094	0.0	634.6219939963208	732.0447396937064	0.0	633.9893319459	681.8890709646818	0.0	632.6618729417781	712.7403119905272	0.0	604.9244501022608	742.8346002709301	0.0	597.441339745003	789.2586416580659	0.0	592.1160786016943	829.9587076552855	0.0	664.1006860964123	743.6991735298599	0.0	671.5931680845651	792.3482118440766	0.0	675.4285990320612	835.1625681881961	0.0
1070	35.683443085606775	635.7109244130737	827.0816868285406	0.0	620.0811895647341	828.9437682442392	0.0	621.0554197626046	895.9917227503637	0.0	621.3597979861794	954.3058190510686	0.0	625.5030827588525	972.042838402951	0.0	617.4908823509246	970.6134488812562	0.0	621.5034494253581	963.7687606820808	0.0	651.1178055627963	828.419138982682	0.0	648.4512799900855	895.8953411915404	0.0	643.7275342423895	956.242870253135	0.0	639.0664192552249	975.4989122337822	0.0	648.7727754432758	974.7289794779725	0.0	643.1265963686907	964.4345600267078	0.0	635.2076899212544	733.0517061311838	0.0	634.7100979471858	682.1738355906161	0.0	633.3813026151561	712.9615770037606	0.0	605.4017095674633	743.0400970466926	0.0	597.5423865073388	789.497620304074	0.0	592.0040649505381	830.6344951585118	0.0	664.4997704430601	743.9036200195817	0.0	672.0294547755215	792.9545593702668	0.0	676.0136608083193	835.5705167446786	0.0
1071	35.71679209783632	636.0859697698987	828.5167133808465	0.0	620.2736494633	830.4054264291018	0.0	621.0689226599873	897.1487547927782	0.0	621.1331669421858	955.0993824691171	0.0	625.6356752822511	971.9044503309896	0.0	616.9542249763747	970.7719255383747	0.0	621.8513105305175	964.7953486980813	0.0	651.733590133494	830.0294522873328	0.0	648.387019149787	897.8221513698641	0.0	645.1860403450711	959.9769341950498	0.0	640.982168814037	978.8302500468048	0.0	650.7778404950973	978.5024314556505	0.0	644.3145931391829	968.6630513407749	0.0	635.7038896955216	735.0729909014551	0.0	635.278210708396	683.9260553885904	0.0	634.0297538713074	713.8891591336105	0.0	605.8799728310491	743.675091082228	0.0	597.7998106958106	790.1488807212978	0.0	591.9911171346346	831.459499302432	0.0	665.0295890205276	744.6037802314682	0.0	672.7168226685603	793.723406973763	0.0	676.8034500053691	836.0263090017991	0.0
1072	35.750141110065854	636.463491200689	830.0493319752053	0.0	620.6938837527874	831.7576396746817	0.0	621.292710121486	897.7088483675491	0.0	621.0242543239544	955.2494130493913	0.0	625.5659598420974	971.6510742538767	0.0	616.387581015136	970.823254171693	0.0	622.0628458034463	965.0880814992206	0.0	652.391819417647	831.551634224568	0.0	648.3816262251983	898.7502675892619	0.0	646.7387961711727	961.6137847919626	0.0	642.6778854514326	979.6593774790997	0.0	652.539612040712	980.0426200525985	0.0	645.5983988476635	971.2705972014691	0.0	636.2310209375383	736.8358061534619	0.0	635.8917678245097	686.0931813812246	0.0	634.7477705151355	715.6194503123512	0.0	606.5391042454639	744.7616130942281	0.0	598.2260594114707	791.1853769064606	0.0	592.2240386084725	832.3725400746655	0.0	665.8202067331605	745.8648042085292	0.0	673.6467880912187	794.8529403922593	0.0	677.6436085928041	837.1165827010734	0.0
1073	35.7834901222954	637.0654017604606	831.2535178698663	0.0	621.6274950223914	832.8824100470299	0.0	621.8763508769272	898.6157915221764	0.0	621.1608012807227	955.3345603658232	0.0	625.4593082609983	971.7367850797689	0.0	616.2028364068574	970.9427485757742	0.0	622.2402540592725	965.2531012142667	0.0	653.1080361554966	832.8243991354669	0.0	648.4307299698557	899.3940172974267	0.0	647.7934673872405	962.1716121926155	0.0	643.8897157353542	979.7176680857976	0.0	653.9516156396145	980.5576806990887	0.0	646.544331010948	972.781931444079	0.0	637.0036256610192	737.13093409847	0.0	636.8275151218742	686.7466323554919	0.0	635.6691169899366	717.1765472190231	0.0	607.5430470158133	745.920409652807	0.0	598.8251138147483	792.401477478561	0.0	592.6706205999865	833.5708791934537	0.0	666.9992614131592	747.146462055937	0.0	674.6663411364341	796.262160113054	0.0	678.5210905486559	838.73342382471	0.0
